<svg width="20" height="20" viewBox="0 0 20 20" fill="none" xmlns="http://www.w3.org/2000/svg">
<path d="M13.3334 6.66699C14.6594 6.66699 15.9312 7.19378 16.8689 8.13146C17.8066 9.06914 18.3334 10.3409 18.3334 11.667V17.5003H15V11.667C15 11.225 14.8244 10.801 14.5119 10.4885C14.1993 10.1759 13.7754 10.0003 13.3334 10.0003C12.8913 10.0003 12.4674 10.1759 12.1548 10.4885C11.8423 10.801 11.6667 11.225 11.6667 11.667V17.5003H8.33335V11.667C8.33335 10.3409 8.86014 9.06914 9.79782 8.13146C10.7355 7.19378 12.0073 6.66699 13.3334 6.66699Z" fill="#D9D9D9"/>
<path d="M5.00002 7.50033H1.66669V17.5003H5.00002V7.50033Z" fill="#D9D9D9"/>
<path d="M3.33335 5.00033C4.25383 5.00033 5.00002 4.25413 5.00002 3.33366C5.00002 2.41318 4.25383 1.66699 3.33335 1.66699C2.41288 1.66699 1.66669 2.41318 1.66669 3.33366C1.66669 4.25413 2.41288 5.00033 3.33335 5.00033Z" fill="#D9D9D9"/>
</svg>
