<svg width="20" height="20" viewBox="0 0 20 20" fill="none" xmlns="http://www.w3.org/2000/svg">
<path d="M12.0834 8.33366C11.3917 8.33366 10.8334 7.77533 10.8334 7.08366V2.91699C10.8334 2.22533 11.3917 1.66699 12.0834 1.66699C12.775 1.66699 13.3334 2.22533 13.3334 2.91699V7.08366C13.3334 7.77533 12.775 8.33366 12.0834 8.33366Z" fill="#D9D9D9"/>
<path d="M17.0834 8.33366H15.8334V7.08366C15.8334 6.39199 16.3917 5.83366 17.0834 5.83366C17.775 5.83366 18.3334 6.39199 18.3334 7.08366C18.3334 7.77533 17.775 8.33366 17.0834 8.33366Z" fill="#D9D9D9"/>
<path d="M7.91669 11.667C8.60835 11.667 9.16669 12.2253 9.16669 12.917V17.0837C9.16669 17.7753 8.60835 18.3337 7.91669 18.3337C7.22502 18.3337 6.66669 17.7753 6.66669 17.0837V12.917C6.66669 12.2253 7.22502 11.667 7.91669 11.667Z" fill="#D9D9D9"/>
<path d="M2.91669 11.667H4.16669V12.917C4.16669 13.6087 3.60835 14.167 2.91669 14.167C2.22502 14.167 1.66669 13.6087 1.66669 12.917C1.66669 12.2253 2.22502 11.667 2.91669 11.667Z" fill="#D9D9D9"/>
<path d="M11.6667 12.0837C11.6667 11.392 12.225 10.8337 12.9167 10.8337H17.0834C17.775 10.8337 18.3334 11.392 18.3334 12.0837C18.3334 12.7753 17.775 13.3337 17.0834 13.3337H12.9167C12.225 13.3337 11.6667 12.7753 11.6667 12.0837Z" fill="#D9D9D9"/>
<path d="M12.9167 15.8337H11.6667V17.0837C11.6667 17.7753 12.225 18.3337 12.9167 18.3337C13.6084 18.3337 14.1667 17.7753 14.1667 17.0837C14.1667 16.392 13.6084 15.8337 12.9167 15.8337Z" fill="#D9D9D9"/>
<path d="M8.33335 7.91699C8.33335 7.22533 7.77502 6.66699 7.08335 6.66699H2.91669C2.22502 6.66699 1.66669 7.22533 1.66669 7.91699C1.66669 8.60866 2.22502 9.16699 2.91669 9.16699H7.08335C7.77502 9.16699 8.33335 8.60866 8.33335 7.91699Z" fill="#D9D9D9"/>
<path d="M7.08335 4.16699H8.33335V2.91699C8.33335 2.22533 7.77502 1.66699 7.08335 1.66699C6.39169 1.66699 5.83335 2.22533 5.83335 2.91699C5.83335 3.60866 6.39169 4.16699 7.08335 4.16699Z" fill="#D9D9D9"/>
</svg>
