<svg width="20" height="20" viewBox="0 0 20 20" fill="none" xmlns="http://www.w3.org/2000/svg">
<path d="M19.1666 2.49959C18.3686 3.06249 17.4851 3.49302 16.55 3.77459C16.0481 3.19752 15.3811 2.7885 14.6392 2.60286C13.8973 2.41722 13.1162 2.46392 12.4017 2.73664C11.6872 3.00935 11.0737 3.49493 10.6441 4.12769C10.2146 4.76045 9.98973 5.50987 9.99998 6.27459V7.10792C8.53551 7.1459 7.08437 6.8211 5.77582 6.16246C4.46727 5.50382 3.34191 4.53179 2.49998 3.33292C2.49998 3.33292 -0.833354 10.8329 6.66665 14.1663C4.95042 15.3312 2.90594 15.9154 0.833313 15.8329C8.33331 19.9996 17.5 15.8329 17.5 6.24959C17.4992 6.01747 17.4769 5.78592 17.4333 5.55792C18.2838 4.71917 18.884 3.66018 19.1666 2.49959Z" fill="#D9D9D9"/>
</svg>
