<svg width="30" height="31" viewBox="0 0 30 31" fill="none" xmlns="http://www.w3.org/2000/svg">
<path d="M28.6523 2.60962C29.043 2.60962 29.3652 2.73657 29.6191 2.99048C29.873 3.24438 30 3.56665 30 3.95728V5.18774C30 5.57837 29.873 5.90063 29.6191 6.15454C29.3652 6.40845 29.043 6.5354 28.6523 6.5354H28.4766V21.6526C28.4766 22.0042 28.3398 22.3167 28.0664 22.5901C27.793 22.8635 27.4805 23.0002 27.1289 23.0002H15.6445V24.9338L20.625 28.6252C21.0156 28.8987 21.0742 29.2112 20.8008 29.5627C20.6445 29.719 20.4688 29.7971 20.2734 29.7971C20.1172 29.7971 19.9805 29.7581 19.8633 29.6799L15.6445 26.6331V29.1526C15.6445 29.3479 15.5859 29.5042 15.4688 29.6213C15.3516 29.7385 15.1953 29.7971 15 29.7971C14.8047 29.7971 14.6484 29.7385 14.5312 29.6213C14.4141 29.5042 14.3555 29.3479 14.3555 29.1526V26.6331L10.1367 29.6799C9.78516 29.9534 9.47266 29.9143 9.19922 29.5627C8.92578 29.2112 8.98438 28.8987 9.375 28.6252L14.3555 24.9338V23.0002H2.87109C2.51953 23.0002 2.20703 22.8635 1.93359 22.5901C1.66016 22.3167 1.52344 22.0042 1.52344 21.6526V6.5354H1.34766C0.957031 6.5354 0.634766 6.40845 0.380859 6.15454C0.126953 5.90063 0 5.57837 0 5.18774V3.95728C0 3.56665 0.126953 3.24438 0.380859 2.99048C0.634766 2.73657 0.957031 2.60962 1.34766 2.60962H14.3555V1.8479C14.3555 1.65259 14.4141 1.49634 14.5312 1.37915C14.6484 1.26196 14.8047 1.20337 15 1.20337C15.1953 1.20337 15.3516 1.26196 15.4688 1.37915C15.5859 1.49634 15.6445 1.65259 15.6445 1.8479V2.60962H28.6523ZM27.1289 21.6526V6.5354H2.87109V21.6526H27.1289ZM28.6523 5.18774V3.95728H1.34766V5.18774H28.6523ZM15 8.46899C16.6016 8.46899 17.9785 9.04517 19.1309 10.1975C20.2832 11.3499 20.8594 12.7268 20.8594 14.3284C20.8594 15.3831 20.5957 16.3596 20.0684 17.2581C19.541 18.1565 18.8281 18.8694 17.9297 19.3967C17.0312 19.9241 16.0547 20.1877 15 20.1877C13.3984 20.1877 12.0215 19.6116 10.8691 18.4592C9.7168 17.3069 9.14062 15.9299 9.14062 14.3284C9.14062 14.1721 9.19922 14.0354 9.31641 13.9182C9.43359 13.801 9.57031 13.7424 9.72656 13.7424H14.3555V9.11353C14.3555 8.91821 14.4238 8.76196 14.5605 8.64478C14.6973 8.52759 14.8438 8.46899 15 8.46899ZM15 18.9573C16.2891 18.9573 17.3828 18.5081 18.2812 17.6096C19.1797 16.7112 19.6289 15.6174 19.6289 14.3284C19.6289 13.1565 19.2383 12.1311 18.457 11.2522C17.6758 10.3733 16.7188 9.87524 15.5859 9.75806V14.3284C15.5859 14.4846 15.5273 14.6213 15.4102 14.7385C15.293 14.8557 15.1562 14.9143 15 14.9143H10.3711C10.5273 16.0862 11.0449 17.053 11.9238 17.8147C12.8027 18.5764 13.8281 18.9573 15 18.9573ZM12.9492 7.88306C13.1055 7.88306 13.2422 7.94165 13.3594 8.05884C13.4766 8.17603 13.5352 8.31274 13.5352 8.46899V12.2776C13.5352 12.4338 13.4766 12.5706 13.3594 12.6877C13.2422 12.8049 13.1055 12.8635 12.9492 12.8635H9.14062C8.94531 12.8635 8.78906 12.8049 8.67188 12.6877C8.55469 12.5706 8.49609 12.4338 8.49609 12.2776C8.49609 11.6917 8.61328 11.1252 8.84766 10.5784C9.08203 10.0315 9.4043 9.56274 9.81445 9.17212C10.2246 8.78149 10.7031 8.46899 11.25 8.23462C11.7969 8.00024 12.3633 7.88306 12.9492 7.88306ZM12.3633 11.6917V9.11353C11.6992 9.23071 11.1328 9.52368 10.6641 9.99243C10.1953 10.4612 9.90234 11.0276 9.78516 11.6917H12.3633Z" fill="white"/>
</svg>
