<svg width="7" height="18" viewBox="0 0 7 18" fill="none" xmlns="http://www.w3.org/2000/svg">
<path d="M6.48333 5.2334C6.55029 5.30036 6.58378 5.37737 6.58378 5.46443C6.58378 5.55148 6.55029 5.62849 6.48333 5.69545L2.53578 9.643L6.48333 13.5905C6.55029 13.6575 6.58378 13.7345 6.58378 13.8216C6.58378 13.9086 6.55029 13.9856 6.48333 14.0526L5.9811 14.5548C5.91413 14.6218 5.83712 14.6553 5.75007 14.6553C5.66302 14.6553 5.58601 14.6218 5.51904 14.5548L0.838239 9.87402C0.771275 9.80706 0.737793 9.73005 0.737793 9.643C0.737793 9.55594 0.771275 9.47893 0.838239 9.41197L5.51904 4.73117C5.58601 4.6642 5.66302 4.63072 5.75007 4.63072C5.83712 4.63072 5.91413 4.6642 5.9811 4.73117L6.48333 5.2334Z" fill="#081127"/>
</svg>
