<svg width="50" height="51" viewBox="0 0 50 51" fill="none" xmlns="http://www.w3.org/2000/svg">
<path d="M6.25002 41.125H12.5V47.375H6.25002V41.125ZM21.875 41.125H28.125V47.375H21.875V41.125ZM37.5 41.125H43.75V47.375H37.5V41.125ZM39.0625 25.5H26.5625V22.375H23.4375V25.5H10.9375C10.1087 25.5 9.31386 25.8292 8.72781 26.4153C8.14176 27.0013 7.81252 27.7962 7.81252 28.625V38H10.9375V28.625H23.4375V38H26.5625V28.625H39.0625V38H42.1875V28.625C42.1875 27.7962 41.8583 27.0013 41.2722 26.4153C40.6862 25.8292 39.8913 25.5 39.0625 25.5ZM14.0625 3.625V19.25H35.9375V3.625H14.0625ZM17.1875 6.75H20.3125V16.125H17.1875V6.75ZM32.8125 16.125H23.4375V6.75H32.8125V16.125Z" fill="#F6B129"/>
</svg>
