<svg width="51" height="51" viewBox="0 0 51 51" fill="none" xmlns="http://www.w3.org/2000/svg">
<path d="M36.2675 11.4375H42.5175V17.6875H36.2675V11.4375ZM36.2675 20.8125H42.5175V27.0625H36.2675V20.8125ZM26.8925 11.4375H33.1425V17.6875H26.8925V11.4375ZM26.8925 20.8125H33.1425V27.0625H26.8925V20.8125Z" fill="#F6B129"/>
<path d="M22.9863 41.125C24.2807 41.125 25.33 40.0757 25.33 38.7812C25.33 37.4868 24.2807 36.4375 22.9863 36.4375C21.6918 36.4375 20.6425 37.4868 20.6425 38.7812C20.6425 40.0757 21.6918 41.125 22.9863 41.125Z" fill="#F6B129"/>
<path d="M33.1425 47.375H12.83C12.0012 47.375 11.2064 47.0458 10.6203 46.4597C10.0343 45.8737 9.70502 45.0788 9.70502 44.25V6.75C9.70502 5.9212 10.0343 5.12634 10.6203 4.54029C11.2064 3.95424 12.0012 3.625 12.83 3.625H33.1425V6.75H12.83V44.25H33.1425V31.75H36.2675V44.25C36.2675 45.0788 35.9383 45.8737 35.3522 46.4597C34.7662 47.0458 33.9713 47.375 33.1425 47.375Z" fill="#F6B129"/>
</svg>
