<svg width="21" height="21" viewBox="0 0 21 21" fill="none" xmlns="http://www.w3.org/2000/svg">
<path fill-rule="evenodd" clip-rule="evenodd" d="M18 3.19336C18 3.0276 17.9341 2.86863 17.8169 2.75142C17.6997 2.63421 17.5408 2.56836 17.375 2.56836H9.875C9.70924 2.56836 9.55026 2.63421 9.43305 2.75142C9.31584 2.86863 9.25 3.0276 9.25 3.19336C9.25 3.35912 9.31584 3.51809 9.43305 3.6353C9.55026 3.75251 9.70924 3.81836 9.875 3.81836H15.8662L3.1825 16.5009C3.12439 16.559 3.07829 16.628 3.04684 16.7039C3.01539 16.7798 2.99921 16.8612 2.99921 16.9434C2.99921 17.0255 3.01539 17.1069 3.04684 17.1828C3.07829 17.2588 3.12439 17.3277 3.1825 17.3859C3.24061 17.444 3.30959 17.4901 3.38552 17.5215C3.46144 17.553 3.54282 17.5691 3.625 17.5691C3.70718 17.5691 3.78855 17.553 3.86448 17.5215C3.9404 17.4901 4.00939 17.444 4.0675 17.3859L16.75 4.70211V10.6934C16.75 10.8591 16.8158 11.0181 16.9331 11.1353C17.0503 11.2525 17.2092 11.3184 17.375 11.3184C17.5408 11.3184 17.6997 11.2525 17.8169 11.1353C17.9341 11.0181 18 10.8591 18 10.6934V3.19336Z" fill="white"/>
</svg>
