<svg width="30" height="31" viewBox="0 0 30 31" fill="none" xmlns="http://www.w3.org/2000/svg">
<path d="M15.9961 19.3086C16.7383 19.3086 17.3633 19.5723 17.8711 20.0996C18.3789 20.627 18.6328 21.252 18.6328 21.9746C18.6328 22.6973 18.3789 23.3125 17.8711 23.8203C17.3633 24.3281 16.7578 24.582 16.0547 24.582H15.8789V25.6367C15.8789 25.832 15.8105 26.0078 15.6738 26.1641C15.5371 26.3203 15.3613 26.3984 15.1465 26.3984C14.9316 26.3984 14.7559 26.3203 14.6191 26.1641C14.4824 26.0078 14.4141 25.832 14.4141 25.6367V24.582H12.9492C12.7148 24.582 12.5293 24.5039 12.3926 24.3477C12.2559 24.1914 12.1875 24.0156 12.1875 23.8203C12.1875 23.625 12.2559 23.4492 12.3926 23.293C12.5293 23.1367 12.7148 23.0586 12.9492 23.0586H15.9961C16.3086 23.0586 16.582 22.9512 16.8164 22.7363C17.0508 22.5215 17.168 22.2578 17.168 21.9453C17.168 21.6328 17.0508 21.3691 16.8164 21.1543C16.582 20.9395 16.3086 20.832 15.9961 20.832H14.2969C13.5547 20.832 12.9297 20.5781 12.4219 20.0703C11.9141 19.5625 11.6602 18.9473 11.6602 18.2246C11.6602 17.502 11.9141 16.877 12.4219 16.3496C12.9297 15.8223 13.5547 15.5586 14.2969 15.5586H14.4141V14.5625C14.4141 14.3281 14.4824 14.1426 14.6191 14.0059C14.7559 13.8691 14.9316 13.8008 15.1465 13.8008C15.3613 13.8008 15.5371 13.8691 15.6738 14.0059C15.8105 14.1426 15.8789 14.3281 15.8789 14.5625V15.5586H17.2852C17.5195 15.5586 17.7051 15.6367 17.8418 15.793C17.9785 15.9492 18.0469 16.125 18.0469 16.3203C18.0469 16.5156 17.9785 16.6914 17.8418 16.8477C17.7051 17.0039 17.5195 17.082 17.2852 17.082H14.2969C13.9844 17.082 13.7207 17.1895 13.5059 17.4043C13.291 17.6191 13.1836 17.8828 13.1836 18.1953C13.1836 18.5078 13.291 18.7715 13.5059 18.9863C13.7207 19.2012 13.9844 19.3086 14.2969 19.3086H15.9961ZM26.4258 17.6094C27.4023 19.9141 27.8906 22.2773 27.8906 24.6992C27.8906 26.3008 27.3242 27.668 26.1914 28.8008C25.0586 29.9336 23.6914 30.5 22.0898 30.5H7.91016C6.30859 30.5 4.94141 29.9336 3.80859 28.8008C2.67578 27.668 2.10938 26.3008 2.10938 24.6992C2.10938 22.2773 2.59766 19.9141 3.57422 17.6094C4.39453 15.8125 5.48828 14.0938 6.85547 12.4531C8.10547 10.9297 9.47266 9.62109 10.957 8.52734L7.5 3.37109C7.26562 3.01953 7.30469 2.70703 7.61719 2.43359C8.75 1.26172 10 0.675781 11.3672 0.675781C12.2266 0.675781 13.457 0.96875 15.0586 1.55469C15.1758 1.59375 15.293 1.61328 15.4102 1.61328C15.7227 1.61328 16.2305 1.45703 16.9336 1.14453C17.9492 0.714844 18.7695 0.5 19.3945 0.5C20.332 0.5 21.2109 0.890625 22.0312 1.67188C22.3047 1.94531 22.3633 2.25781 22.207 2.60938L18.9844 8.46875C20.4688 9.5625 21.8555 10.8906 23.1445 12.4531C24.5117 14.0547 25.6055 15.7734 26.4258 17.6094ZM9.08203 3.01953L12.3633 7.94141H17.5781L20.5664 2.375C20.1758 2.10156 19.7852 1.96484 19.3945 1.96484C19.0039 1.96484 18.3789 2.14062 17.5195 2.49219C16.6211 2.88281 15.918 3.07812 15.4102 3.07812C15.1367 3.07812 14.8633 3.01953 14.5898 2.90234C13.1445 2.39453 12.0703 2.14062 11.3672 2.14062C10.5469 2.14062 9.78516 2.43359 9.08203 3.01953ZM22.0898 28.9766C23.2617 28.9766 24.2676 28.5566 25.1074 27.7168C25.9473 26.877 26.3672 25.8711 26.3672 24.6992C26.3672 20.6758 24.9219 16.9258 22.0312 13.4492C20.7031 11.8086 19.2969 10.4805 17.8125 9.46484H12.1875C10.6641 10.5586 9.25781 11.8867 7.96875 13.4492C5.07812 16.9258 3.63281 20.6758 3.63281 24.6992C3.63281 25.8711 4.05273 26.877 4.89258 27.7168C5.73242 28.5566 6.73828 28.9766 7.91016 28.9766H22.0898Z" fill="white"/>
</svg>
