<svg width="51" height="51" viewBox="0 0 51 51" fill="none" xmlns="http://www.w3.org/2000/svg">
<path d="M23.2467 8.83203V21.332C23.2467 23.6341 19.0488 25.4987 13.8717 25.4987C8.69459 25.4987 4.49667 23.6341 4.49667 21.332V8.83203" stroke="#F6B129" stroke-width="4" stroke-linecap="round" stroke-linejoin="round"/>
<path d="M23.2467 15.0827C23.2467 17.3848 19.0488 19.2494 13.8717 19.2494C8.69459 19.2494 4.49667 17.3848 4.49667 15.0827M33.6633 6.74935H39.9133C41.0184 6.74935 42.0782 7.18834 42.8596 7.96974C43.641 8.75114 44.08 9.81095 44.08 10.916V17.166M16.9967 44.2494H10.7467C9.64161 44.2494 8.5818 43.8104 7.8004 43.029C7.01899 42.2476 6.58001 41.1878 6.58001 40.0827V33.8327M36.7883 40.0827V46.3327M43.0383 46.3327H30.5383M23.2467 8.83268C23.2467 11.1348 19.0488 12.9993 13.8717 12.9993C8.69459 12.9993 4.49667 11.1348 4.49667 8.83268C4.49667 6.5306 8.69459 4.66602 13.8717 4.66602C19.0488 4.66602 23.2467 6.5306 23.2467 8.83268ZM46.1633 40.0827V27.5827H27.4133V40.0827H46.1633Z" stroke="#F6B129" stroke-width="4" stroke-linecap="round" stroke-linejoin="round"/>
</svg>
