<svg width="30" height="31" viewBox="0 0 30 31" fill="none" xmlns="http://www.w3.org/2000/svg">
<path d="M29.4727 28.2734C29.8242 28.2734 30 28.4395 30 28.7715C30 29.1035 29.8242 29.2695 29.4727 29.2695H23.4961H21.9727H15.9961H14.4727H8.49609H6.97266H0.996094H0.527344C0.175781 29.2695 0 29.1035 0 28.7715C0 28.4395 0.175781 28.2734 0.527344 28.2734H0.996094V21.2422H6.97266V28.2734H8.49609V16.7305H14.4727V28.2734H15.9961V12.7461H21.9727V28.2734H23.4961V8.76172H29.4727V28.2734ZM1.99219 28.2734H5.97656V22.2383H1.99219V28.2734ZM9.49219 28.2734H13.4766V17.7266H9.49219V28.2734ZM16.9922 28.2734H20.9766V13.7422H16.9922V28.2734ZM24.4922 28.2734H28.4766V9.75781H24.4922V28.2734ZM4.04297 14.3867C3.84766 14.3867 3.69141 14.3086 3.57422 14.1523C3.41797 13.8789 3.47656 13.6641 3.75 13.5078L21.9141 3.01953L19.1602 2.72656C18.8477 2.72656 18.7012 2.56055 18.7207 2.22852C18.7402 1.89648 18.9258 1.73047 19.2773 1.73047L23.5547 2.14062V2.19922H23.6133C23.6133 2.19922 23.6328 2.19922 23.6719 2.19922H23.7305C23.7305 2.19922 23.75 2.21875 23.7891 2.25781C23.7891 2.25781 23.7988 2.26758 23.8184 2.28711C23.8379 2.30664 23.8574 2.32617 23.877 2.3457C23.8965 2.36523 23.9062 2.375 23.9062 2.375C23.9062 2.375 23.9062 2.38477 23.9062 2.4043C23.9062 2.42383 23.916 2.43359 23.9355 2.43359C23.9551 2.43359 23.9648 2.43359 23.9648 2.43359C23.9648 2.43359 23.9648 2.45312 23.9648 2.49219C23.9648 2.49219 23.9648 2.51172 23.9648 2.55078C23.9648 2.58984 23.9844 2.62891 24.0234 2.66797V2.72656C24.0234 2.72656 24.0039 2.72656 23.9648 2.72656C23.9648 2.76562 23.9648 2.79492 23.9648 2.81445C23.9648 2.83398 23.9648 2.84375 23.9648 2.84375L22.1484 6.76953C22.0703 6.96484 21.9336 7.0625 21.7383 7.0625C21.6602 7.0625 21.582 7.0625 21.5039 7.0625C21.1914 6.90625 21.1133 6.67188 21.2695 6.35938L22.3828 3.89844L4.27734 14.3281C4.19922 14.3672 4.12109 14.3867 4.04297 14.3867Z" fill="white"/>
</svg>
