<svg width="198" height="52" viewBox="0 0 198 52" fill="none" xmlns="http://www.w3.org/2000/svg">
<rect y="0.286133" width="25.7143" height="25.7143" fill="#F6B129"/>
<rect x="16.0714" y="29.2148" width="28.9286" height="12.8571" fill="#F6B129"/>
<rect x="25.7143" y="45.2861" width="19.2857" height="6.42857" fill="#F6B129"/>
<rect x="28.9286" y="0.286133" width="16.0714" height="16.0714" fill="#F6B129"/>
<path d="M55.28 11.82H62.24V13.96H55.28V11.82ZM55.48 17.82H63.38V20H52.88V6H63.1V8.18H55.48V17.82ZM66.2784 20V6H68.4184L77.1984 16.78H76.1384V6H78.7184V20H76.5784L67.7984 9.22H68.8584V20H66.2784ZM85.3098 20V8.2H80.6698V6H92.5498V8.2H87.9098V20H85.3098ZM91.818 20L98.118 6H100.678L106.998 20H104.278L98.858 7.38H99.898L94.498 20H91.818ZM94.718 16.76L95.418 14.72H102.978L103.678 16.76H94.718ZM108.778 20V6H114.538C115.778 6 116.838 6.2 117.718 6.6C118.612 7 119.298 7.57333 119.778 8.32C120.258 9.06667 120.498 9.95333 120.498 10.98C120.498 12.0067 120.258 12.8933 119.778 13.64C119.298 14.3867 118.612 14.96 117.718 15.36C116.838 15.76 115.778 15.96 114.538 15.96H110.218L111.378 14.74V20H108.778ZM111.378 15.02L110.218 13.76H114.418C115.565 13.76 116.425 13.52 116.998 13.04C117.585 12.5467 117.878 11.86 117.878 10.98C117.878 10.0867 117.585 9.4 116.998 8.92C116.425 8.44 115.565 8.2 114.418 8.2H110.218L111.378 6.92V15.02ZM123.095 20V6H128.855C130.095 6 131.155 6.2 132.035 6.6C132.928 7 133.615 7.57333 134.095 8.32C134.575 9.06667 134.815 9.95333 134.815 10.98C134.815 12.0067 134.575 12.8933 134.095 13.64C133.615 14.3867 132.928 14.96 132.035 15.36C131.155 15.76 130.095 15.96 128.855 15.96H124.535L125.695 14.74V20H123.095ZM125.695 15.02L124.535 13.76H128.735C129.882 13.76 130.742 13.52 131.315 13.04C131.902 12.5467 132.195 11.86 132.195 10.98C132.195 10.0867 131.902 9.4 131.315 8.92C130.742 8.44 129.882 8.2 128.735 8.2H124.535L125.695 6.92V15.02ZM145.974 20V8.2H141.334V6H153.214V8.2H148.574V20H145.974ZM157.565 11.82H164.525V13.96H157.565V11.82ZM157.765 17.82H165.665V20H155.165V6H165.385V8.18H157.765V17.82ZM175.044 20.2C173.977 20.2 172.984 20.0267 172.064 19.68C171.157 19.32 170.364 18.82 169.684 18.18C169.017 17.5267 168.497 16.76 168.124 15.88C167.75 15 167.564 14.04 167.564 13C167.564 11.96 167.75 11 168.124 10.12C168.497 9.24 169.024 8.48 169.704 7.84C170.384 7.18667 171.177 6.68667 172.084 6.34C172.99 5.98 173.984 5.8 175.064 5.8C176.21 5.8 177.257 6 178.204 6.4C179.15 6.78667 179.95 7.36667 180.604 8.14L178.924 9.72C178.417 9.17333 177.85 8.76667 177.224 8.5C176.597 8.22 175.917 8.08 175.184 8.08C174.45 8.08 173.777 8.2 173.164 8.44C172.564 8.68 172.037 9.02 171.584 9.46C171.144 9.9 170.797 10.42 170.544 11.02C170.304 11.62 170.184 12.28 170.184 13C170.184 13.72 170.304 14.38 170.544 14.98C170.797 15.58 171.144 16.1 171.584 16.54C172.037 16.98 172.564 17.32 173.164 17.56C173.777 17.8 174.45 17.92 175.184 17.92C175.917 17.92 176.597 17.7867 177.224 17.52C177.85 17.24 178.417 16.82 178.924 16.26L180.604 17.86C179.95 18.62 179.15 19.2 178.204 19.6C177.257 20 176.204 20.2 175.044 20.2ZM192.935 6H195.535V20H192.935V6ZM185.695 20H183.095V6H185.695V20ZM193.135 14H185.475V11.78H193.135V14Z" fill="black"/>
<path d="M52.3672 44V34.0059H53.5293V44H52.3672ZM59.6543 36.3711C60.543 36.3711 61.2152 36.5898 61.6709 37.0273C62.1266 37.4603 62.3545 38.1576 62.3545 39.1191V44H61.2334V39.1943C61.2334 38.57 61.0898 38.1029 60.8027 37.793C60.5202 37.4831 60.085 37.3281 59.4971 37.3281C58.6676 37.3281 58.0843 37.5628 57.7471 38.0322C57.4098 38.5016 57.2412 39.1829 57.2412 40.0762V44H56.1064V36.5078H57.0225L57.1934 37.5879H57.2549C57.4144 37.3236 57.6172 37.1025 57.8633 36.9248C58.1094 36.7425 58.3851 36.6058 58.6904 36.5146C58.9958 36.4189 59.3171 36.3711 59.6543 36.3711ZM68.2402 36.3711C69.1289 36.3711 69.8011 36.5898 70.2568 37.0273C70.7126 37.4603 70.9404 38.1576 70.9404 39.1191V44H69.8193V39.1943C69.8193 38.57 69.6758 38.1029 69.3887 37.793C69.1061 37.4831 68.6709 37.3281 68.083 37.3281C67.2536 37.3281 66.6702 37.5628 66.333 38.0322C65.9958 38.5016 65.8271 39.1829 65.8271 40.0762V44H64.6924V36.5078H65.6084L65.7793 37.5879H65.8408C66.0003 37.3236 66.2031 37.1025 66.4492 36.9248C66.6953 36.7425 66.971 36.6058 67.2764 36.5146C67.5817 36.4189 67.903 36.3711 68.2402 36.3711ZM79.7383 40.2402C79.7383 40.8555 79.6585 41.4046 79.499 41.8877C79.3395 42.3708 79.1094 42.7786 78.8086 43.1113C78.5078 43.444 78.1432 43.6992 77.7148 43.877C77.291 44.0501 76.8102 44.1367 76.2725 44.1367C75.7712 44.1367 75.3109 44.0501 74.8916 43.877C74.4769 43.6992 74.1169 43.444 73.8115 43.1113C73.5107 42.7786 73.276 42.3708 73.1074 41.8877C72.9434 41.4046 72.8613 40.8555 72.8613 40.2402C72.8613 39.4199 73.0003 38.7227 73.2783 38.1484C73.5563 37.5697 73.9528 37.1299 74.4678 36.8291C74.9873 36.5238 75.6048 36.3711 76.3203 36.3711C77.0039 36.3711 77.6009 36.5238 78.1113 36.8291C78.6263 37.1344 79.0251 37.5765 79.3076 38.1553C79.5947 38.7295 79.7383 39.4245 79.7383 40.2402ZM74.0371 40.2402C74.0371 40.8418 74.1169 41.3636 74.2764 41.8057C74.4359 42.2477 74.682 42.5895 75.0146 42.8311C75.3473 43.0726 75.7757 43.1934 76.2998 43.1934C76.8193 43.1934 77.2454 43.0726 77.5781 42.8311C77.9154 42.5895 78.1637 42.2477 78.3232 41.8057C78.4827 41.3636 78.5625 40.8418 78.5625 40.2402C78.5625 39.6432 78.4827 39.1283 78.3232 38.6953C78.1637 38.2578 77.9176 37.9206 77.585 37.6836C77.2523 37.4466 76.8216 37.3281 76.293 37.3281C75.5137 37.3281 74.9417 37.5856 74.5771 38.1006C74.2171 38.6156 74.0371 39.3288 74.0371 40.2402ZM83.3477 44L80.5039 36.5078H81.7207L83.3682 41.04C83.4821 41.3499 83.5983 41.6917 83.7168 42.0654C83.8353 42.4391 83.9173 42.7399 83.9629 42.9678H84.0107C84.0654 42.7399 84.1566 42.4391 84.2842 42.0654C84.4118 41.6872 84.528 41.3454 84.6328 41.04L86.2803 36.5078H87.4971L84.6465 44H83.3477ZM91.5029 36.3848C92.3962 36.3848 93.0592 36.5853 93.4922 36.9863C93.9251 37.3874 94.1416 38.0277 94.1416 38.9072V44H93.3145L93.0957 42.8926H93.041C92.8314 43.166 92.6126 43.3962 92.3848 43.583C92.1569 43.7653 91.8926 43.9043 91.5918 44C91.2956 44.0911 90.931 44.1367 90.498 44.1367C90.0423 44.1367 89.6367 44.057 89.2812 43.8975C88.9303 43.738 88.6523 43.4964 88.4473 43.1729C88.2467 42.8493 88.1465 42.4391 88.1465 41.9424C88.1465 41.195 88.4427 40.6208 89.0352 40.2197C89.6276 39.8187 90.5299 39.5999 91.7422 39.5635L93.0342 39.5088V39.0508C93.0342 38.4036 92.8952 37.9502 92.6172 37.6904C92.3392 37.4307 91.9473 37.3008 91.4414 37.3008C91.0495 37.3008 90.6758 37.3577 90.3203 37.4717C89.9648 37.5856 89.6276 37.7201 89.3086 37.875L88.96 37.0137C89.2972 36.8405 89.6846 36.6924 90.1221 36.5693C90.5596 36.4463 91.0199 36.3848 91.5029 36.3848ZM93.0205 40.3086L91.8789 40.3564C90.9447 40.3929 90.2861 40.5456 89.9033 40.8145C89.5205 41.0833 89.3291 41.4639 89.3291 41.9561C89.3291 42.3844 89.459 42.7012 89.7188 42.9062C89.9785 43.1113 90.3226 43.2139 90.751 43.2139C91.4163 43.2139 91.9609 43.0293 92.3848 42.6602C92.8086 42.291 93.0205 41.7373 93.0205 40.999V40.3086ZM98.8994 43.207C99.0863 43.207 99.2777 43.1911 99.4736 43.1592C99.6696 43.1273 99.8291 43.0885 99.9521 43.043V43.9248C99.82 43.984 99.6354 44.0342 99.3984 44.0752C99.166 44.1162 98.9382 44.1367 98.7148 44.1367C98.3184 44.1367 97.9583 44.0684 97.6348 43.9316C97.3112 43.7904 97.0514 43.5534 96.8555 43.2207C96.6641 42.888 96.5684 42.4277 96.5684 41.8398V37.3965H95.502V36.8428L96.5752 36.3984L97.0264 34.7715H97.71V36.5078H99.9043V37.3965H97.71V41.8057C97.71 42.2751 97.8171 42.626 98.0312 42.8584C98.25 43.0908 98.5394 43.207 98.8994 43.207ZM102.604 36.5078V44H101.47V36.5078H102.604ZM102.051 33.7051C102.238 33.7051 102.397 33.7666 102.529 33.8896C102.666 34.0081 102.734 34.195 102.734 34.4502C102.734 34.7008 102.666 34.8877 102.529 35.0107C102.397 35.1338 102.238 35.1953 102.051 35.1953C101.855 35.1953 101.691 35.1338 101.559 35.0107C101.431 34.8877 101.367 34.7008 101.367 34.4502C101.367 34.195 101.431 34.0081 101.559 33.8896C101.691 33.7666 101.855 33.7051 102.051 33.7051ZM111.471 40.2402C111.471 40.8555 111.391 41.4046 111.231 41.8877C111.072 42.3708 110.842 42.7786 110.541 43.1113C110.24 43.444 109.876 43.6992 109.447 43.877C109.023 44.0501 108.543 44.1367 108.005 44.1367C107.504 44.1367 107.043 44.0501 106.624 43.877C106.209 43.6992 105.849 43.444 105.544 43.1113C105.243 42.7786 105.008 42.3708 104.84 41.8877C104.676 41.4046 104.594 40.8555 104.594 40.2402C104.594 39.4199 104.733 38.7227 105.011 38.1484C105.289 37.5697 105.685 37.1299 106.2 36.8291C106.72 36.5238 107.337 36.3711 108.053 36.3711C108.736 36.3711 109.333 36.5238 109.844 36.8291C110.359 37.1344 110.757 37.5765 111.04 38.1553C111.327 38.7295 111.471 39.4245 111.471 40.2402ZM105.77 40.2402C105.77 40.8418 105.849 41.3636 106.009 41.8057C106.168 42.2477 106.414 42.5895 106.747 42.8311C107.08 43.0726 107.508 43.1934 108.032 43.1934C108.552 43.1934 108.978 43.0726 109.311 42.8311C109.648 42.5895 109.896 42.2477 110.056 41.8057C110.215 41.3636 110.295 40.8418 110.295 40.2402C110.295 39.6432 110.215 39.1283 110.056 38.6953C109.896 38.2578 109.65 37.9206 109.317 37.6836C108.985 37.4466 108.554 37.3281 108.025 37.3281C107.246 37.3281 106.674 37.5856 106.31 38.1006C105.95 38.6156 105.77 39.3288 105.77 40.2402ZM116.98 36.3711C117.869 36.3711 118.541 36.5898 118.997 37.0273C119.453 37.4603 119.681 38.1576 119.681 39.1191V44H118.56V39.1943C118.56 38.57 118.416 38.1029 118.129 37.793C117.846 37.4831 117.411 37.3281 116.823 37.3281C115.994 37.3281 115.41 37.5628 115.073 38.0322C114.736 38.5016 114.567 39.1829 114.567 40.0762V44H113.433V36.5078H114.349L114.52 37.5879H114.581C114.741 37.3236 114.943 37.1025 115.189 36.9248C115.436 36.7425 115.711 36.6058 116.017 36.5146C116.322 36.4189 116.643 36.3711 116.98 36.3711ZM131.466 41.3408C131.466 41.9333 131.318 42.4391 131.021 42.8584C130.73 43.2731 130.32 43.5898 129.791 43.8086C129.262 44.0273 128.64 44.1367 127.925 44.1367C127.547 44.1367 127.189 44.1185 126.852 44.082C126.514 44.0456 126.204 43.9932 125.922 43.9248C125.639 43.8564 125.391 43.7721 125.177 43.6719V42.5576C125.519 42.6989 125.936 42.8311 126.428 42.9541C126.92 43.0726 127.435 43.1318 127.973 43.1318C128.474 43.1318 128.898 43.0658 129.244 42.9336C129.59 42.7969 129.853 42.6032 130.03 42.3525C130.213 42.0973 130.304 41.792 130.304 41.4365C130.304 41.0947 130.229 40.8099 130.078 40.582C129.928 40.3496 129.677 40.14 129.326 39.9531C128.98 39.7617 128.506 39.5589 127.904 39.3447C127.48 39.1943 127.107 39.0303 126.783 38.8525C126.46 38.6702 126.188 38.4652 125.97 38.2373C125.751 38.0094 125.585 37.7451 125.471 37.4443C125.361 37.1436 125.307 36.7995 125.307 36.4121C125.307 35.8789 125.441 35.4232 125.71 35.0449C125.983 34.6621 126.359 34.3704 126.838 34.1699C127.321 33.9648 127.875 33.8623 128.499 33.8623C129.032 33.8623 129.524 33.9124 129.976 34.0127C130.431 34.113 130.848 34.2474 131.227 34.416L130.864 35.4141C130.504 35.2637 130.121 35.1383 129.716 35.0381C129.315 34.9378 128.9 34.8877 128.472 34.8877C128.043 34.8877 127.681 34.9515 127.385 35.0791C127.093 35.2021 126.87 35.3776 126.715 35.6055C126.56 35.8333 126.482 36.1045 126.482 36.4189C126.482 36.7699 126.555 37.0615 126.701 37.2939C126.852 37.5264 127.089 37.7337 127.412 37.916C127.74 38.0938 128.173 38.2806 128.711 38.4766C129.299 38.6908 129.798 38.9186 130.208 39.1602C130.618 39.3971 130.93 39.6888 131.145 40.0352C131.359 40.377 131.466 40.8122 131.466 41.3408ZM134.474 36.5078V44H133.339V36.5078H134.474ZM133.92 33.7051C134.107 33.7051 134.266 33.7666 134.398 33.8896C134.535 34.0081 134.604 34.195 134.604 34.4502C134.604 34.7008 134.535 34.8877 134.398 35.0107C134.266 35.1338 134.107 35.1953 133.92 35.1953C133.724 35.1953 133.56 35.1338 133.428 35.0107C133.3 34.8877 133.236 34.7008 133.236 34.4502C133.236 34.195 133.3 34.0081 133.428 33.8896C133.56 33.7666 133.724 33.7051 133.92 33.7051ZM145.015 36.3711C145.84 36.3711 146.462 36.5876 146.881 37.0205C147.3 37.4489 147.51 38.1393 147.51 39.0918V44H146.389V39.1465C146.389 38.5404 146.257 38.0869 145.992 37.7861C145.732 37.4808 145.345 37.3281 144.83 37.3281C144.105 37.3281 143.579 37.5378 143.251 37.957C142.923 38.3763 142.759 38.9938 142.759 39.8096V44H141.631V39.1465C141.631 38.7409 141.572 38.4036 141.453 38.1348C141.339 37.8659 141.166 37.6654 140.934 37.5332C140.706 37.3965 140.416 37.3281 140.065 37.3281C139.569 37.3281 139.17 37.4307 138.869 37.6357C138.568 37.8408 138.35 38.1462 138.213 38.5518C138.081 38.9528 138.015 39.4473 138.015 40.0352V44H136.88V36.5078H137.796L137.967 37.5674H138.028C138.179 37.3076 138.368 37.0889 138.596 36.9111C138.824 36.7334 139.079 36.599 139.361 36.5078C139.644 36.4167 139.945 36.3711 140.264 36.3711C140.833 36.3711 141.31 36.4782 141.692 36.6924C142.08 36.902 142.36 37.2233 142.533 37.6562H142.595C142.841 37.2233 143.178 36.902 143.606 36.6924C144.035 36.4782 144.504 36.3711 145.015 36.3711ZM153.361 36.3711C154.296 36.3711 155.041 36.6924 155.597 37.335C156.153 37.9775 156.431 38.9437 156.431 40.2334C156.431 41.0856 156.303 41.8011 156.048 42.3799C155.793 42.9587 155.433 43.3962 154.968 43.6924C154.507 43.9886 153.963 44.1367 153.334 44.1367C152.938 44.1367 152.589 44.0843 152.288 43.9795C151.987 43.8747 151.73 43.7334 151.516 43.5557C151.301 43.3779 151.124 43.1842 150.982 42.9746H150.9C150.914 43.1523 150.93 43.3665 150.948 43.6172C150.971 43.8678 150.982 44.0866 150.982 44.2734V47.3496H149.841V36.5078H150.777L150.928 37.6152H150.982C151.128 37.3874 151.306 37.18 151.516 36.9932C151.725 36.8018 151.98 36.6514 152.281 36.542C152.587 36.4281 152.947 36.3711 153.361 36.3711ZM153.163 37.3281C152.644 37.3281 152.224 37.4284 151.905 37.6289C151.591 37.8294 151.361 38.1302 151.215 38.5312C151.069 38.9277 150.992 39.4268 150.982 40.0283V40.2471C150.982 40.8805 151.051 41.416 151.188 41.8535C151.329 42.291 151.559 42.6237 151.878 42.8516C152.201 43.0794 152.634 43.1934 153.177 43.1934C153.642 43.1934 154.029 43.068 154.339 42.8174C154.649 42.5667 154.879 42.2181 155.029 41.7715C155.184 41.3203 155.262 40.8031 155.262 40.2197C155.262 39.3356 155.089 38.6338 154.742 38.1143C154.4 37.5902 153.874 37.3281 153.163 37.3281ZM159.555 44H158.413V33.3633H159.555V44ZM163.089 36.5078V44H161.954V36.5078H163.089ZM162.535 33.7051C162.722 33.7051 162.882 33.7666 163.014 33.8896C163.15 34.0081 163.219 34.195 163.219 34.4502C163.219 34.7008 163.15 34.8877 163.014 35.0107C162.882 35.1338 162.722 35.1953 162.535 35.1953C162.339 35.1953 162.175 35.1338 162.043 35.0107C161.915 34.8877 161.852 34.7008 161.852 34.4502C161.852 34.195 161.915 34.0081 162.043 33.8896C162.175 33.7666 162.339 33.7051 162.535 33.7051ZM168.831 37.3965H166.965V44H165.83V37.3965H164.504V36.8496L165.83 36.4736V35.9746C165.83 35.3457 165.924 34.8353 166.11 34.4434C166.297 34.0469 166.568 33.7552 166.924 33.5684C167.279 33.3815 167.712 33.2881 168.223 33.2881C168.51 33.2881 168.772 33.3132 169.009 33.3633C169.25 33.4134 169.462 33.4704 169.645 33.5342L169.351 34.4297C169.196 34.3796 169.02 34.334 168.824 34.293C168.633 34.2474 168.437 34.2246 168.236 34.2246C167.803 34.2246 167.482 34.3659 167.272 34.6484C167.067 34.9264 166.965 35.3639 166.965 35.9609V36.5078H168.831V37.3965ZM171.34 36.5078V44H170.205V36.5078H171.34ZM170.786 33.7051C170.973 33.7051 171.132 33.7666 171.265 33.8896C171.401 34.0081 171.47 34.195 171.47 34.4502C171.47 34.7008 171.401 34.8877 171.265 35.0107C171.132 35.1338 170.973 35.1953 170.786 35.1953C170.59 35.1953 170.426 35.1338 170.294 35.0107C170.166 34.8877 170.103 34.7008 170.103 34.4502C170.103 34.195 170.166 34.0081 170.294 33.8896C170.426 33.7666 170.59 33.7051 170.786 33.7051ZM176.624 36.3711C177.262 36.3711 177.809 36.5124 178.265 36.7949C178.72 37.0775 179.069 37.474 179.311 37.9844C179.552 38.4902 179.673 39.0827 179.673 39.7617V40.4658H174.498C174.512 41.3454 174.73 42.0153 175.154 42.4756C175.578 42.9359 176.175 43.166 176.945 43.166C177.419 43.166 177.839 43.1227 178.203 43.0361C178.568 42.9495 178.946 42.8219 179.338 42.6533V43.6514C178.96 43.82 178.584 43.943 178.21 44.0205C177.841 44.098 177.403 44.1367 176.897 44.1367C176.177 44.1367 175.549 43.9909 175.011 43.6992C174.478 43.403 174.063 42.9701 173.767 42.4004C173.47 41.8307 173.322 41.1335 173.322 40.3086C173.322 39.502 173.457 38.8047 173.726 38.2168C173.999 37.6243 174.382 37.1686 174.874 36.8496C175.371 36.5306 175.954 36.3711 176.624 36.3711ZM176.61 37.3008C176.004 37.3008 175.521 37.499 175.161 37.8955C174.801 38.292 174.587 38.8457 174.519 39.5566H178.483C178.479 39.11 178.408 38.7181 178.271 38.3809C178.139 38.0391 177.937 37.7747 177.663 37.5879C177.39 37.3965 177.039 37.3008 176.61 37.3008ZM184.267 44.1367C183.319 44.1367 182.567 43.8132 182.011 43.166C181.459 42.5189 181.184 41.5573 181.184 40.2812C181.184 38.9915 181.466 38.0186 182.031 37.3623C182.596 36.7015 183.348 36.3711 184.287 36.3711C184.684 36.3711 185.03 36.4235 185.326 36.5283C185.622 36.6331 185.878 36.7744 186.092 36.9521C186.306 37.1253 186.486 37.3236 186.632 37.5469H186.714C186.696 37.4056 186.677 37.2119 186.659 36.9658C186.641 36.7197 186.632 36.5192 186.632 36.3643V33.3633H187.767V44H186.851L186.68 42.9336H186.632C186.491 43.1569 186.311 43.3597 186.092 43.542C185.878 43.7243 185.62 43.8701 185.319 43.9795C185.023 44.0843 184.672 44.1367 184.267 44.1367ZM184.444 43.1934C185.246 43.1934 185.814 42.9655 186.146 42.5098C186.479 42.054 186.646 41.3773 186.646 40.4795V40.2744C186.646 39.3219 186.486 38.5905 186.167 38.0801C185.853 37.5697 185.278 37.3145 184.444 37.3145C183.747 37.3145 183.225 37.5833 182.879 38.1211C182.533 38.6543 182.359 39.3835 182.359 40.3086C182.359 41.2292 182.53 41.9401 182.872 42.4414C183.218 42.9427 183.743 43.1934 184.444 43.1934Z" fill="#828DA9"/>
</svg>
