<svg width="51" height="51" viewBox="0 0 51 51" fill="none" xmlns="http://www.w3.org/2000/svg">
<path d="M40.2434 19.25C43.6952 19.25 46.4934 16.4518 46.4934 13C46.4934 9.54822 43.6952 6.75 40.2434 6.75C36.7916 6.75 33.9934 9.54822 33.9934 13C33.9934 16.4518 36.7916 19.25 40.2434 19.25Z" stroke="#F6B129" stroke-width="4" stroke-linecap="round" stroke-linejoin="round"/>
<path d="M46.4934 25.5V31.75C46.4934 32.8551 46.0544 33.9149 45.273 34.6963C44.4916 35.4777 43.4318 35.9167 42.3267 35.9167H8.99339C7.88832 35.9167 6.82851 35.4777 6.04711 34.6963C5.26571 33.9149 4.82672 32.8551 4.82672 31.75V10.9167C4.82672 9.8116 5.26571 8.75179 6.04711 7.97039C6.82851 7.18899 7.88832 6.75 8.99339 6.75H27.7434M25.6601 35.9167V44.25M17.3267 44.25H33.9934" stroke="#F6B129" stroke-width="4" stroke-linecap="round" stroke-linejoin="round"/>
</svg>
