<svg width="50" height="51" viewBox="0 0 50 51" fill="none" xmlns="http://www.w3.org/2000/svg">
<path d="M27.1458 38.0007C27.25 39.459 27.5834 40.8756 28.125 42.1673H13.5417C10.4167 42.1673 7.68752 41.1257 5.43752 38.8965C3.20835 36.709 2.08335 34.0215 2.08335 30.8757C2.08335 28.1673 2.89585 25.7507 4.52085 23.6257C6.95835 20.4382 8.33335 20.1465 10.9375 19.5631C11.8125 16.3756 13.5417 13.7923 16.1459 11.8132C18.75 9.83398 21.7084 8.83398 25 8.83398C29.0625 8.83398 32.5 10.2507 35.3333 13.084C38.1667 15.9173 39.5834 19.3548 39.5834 23.4173H39.7917C38.25 23.5632 36.7709 23.8965 35.4167 24.459V23.4173C35.4167 20.5423 34.375 18.084 32.375 16.0423C30.3333 14.0423 27.875 13.0007 25 13.0007C22.125 13.0007 19.6667 14.0423 17.625 16.0423C15.625 18.084 14.5834 20.5423 14.5834 23.4173H13.5417C11.5209 23.4173 9.81252 24.1256 8.39585 25.5632C6.95835 26.9798 6.25002 28.6882 6.25002 30.709C6.25002 32.7298 6.95835 34.4382 8.39585 35.9173C9.81252 37.2923 11.5209 38.0007 13.5417 38.0007H27.1458ZM39.5834 28.6257V25.5007L34.8959 30.1882L39.5834 34.8757V31.7507C40.9647 31.7507 42.2894 32.2994 43.2662 33.2761C44.243 34.2529 44.7917 35.5776 44.7917 36.959C44.7917 37.7923 44.6042 38.584 44.25 39.2923L46.5209 41.5631C47.3958 40.2506 47.9167 38.6673 47.9167 36.959C47.9167 32.3548 44.1875 28.6257 39.5834 28.6257ZM39.5834 42.1673C38.202 42.1673 36.8773 41.6186 35.9005 40.6418C34.9238 39.6651 34.375 38.3403 34.375 36.959C34.375 36.1257 34.5625 35.334 34.9167 34.6256L32.6458 32.3548C31.7709 33.6673 31.25 35.2507 31.25 36.959C31.25 41.5631 34.9792 45.2923 39.5834 45.2923V48.4173L44.2709 43.7298L39.5834 39.0423V42.1673Z" fill="#F6B129"/>
</svg>
