<svg width="51" height="51" viewBox="0 0 51 51" fill="none" xmlns="http://www.w3.org/2000/svg">
<path d="M20.4517 18.2077L23.5767 21.3327L17.3267 27.5827L23.5767 33.8327L20.4517 36.9577L11.0767 27.5827L20.4517 18.2077ZM30.8683 36.9577L27.7433 33.8327L33.9933 27.5827L27.7433 21.3327L30.8683 18.2077L40.2433 27.5827L30.8683 36.9577ZM44.41 4.66602H6.91001C5.80494 4.66602 4.74514 5.105 3.96374 5.8864C3.18233 6.66781 2.74335 7.72761 2.74335 8.83268V42.166C2.74335 43.2711 3.18233 44.3309 3.96374 45.1123C4.74514 45.8937 5.80494 46.3327 6.91001 46.3327H44.41C45.5151 46.3327 46.5749 45.8937 47.3563 45.1123C48.1377 44.3309 48.5767 43.2711 48.5767 42.166V8.83268C48.5767 7.72761 48.1377 6.66781 47.3563 5.8864C46.5749 5.105 45.5151 4.66602 44.41 4.66602ZM44.41 42.166H6.91001V12.9993H44.41V42.166Z" fill="#F6B129"/>
</svg>
