<svg width="30" height="30" viewBox="0 0 30 30" fill="none" xmlns="http://www.w3.org/2000/svg">
<path d="M15.9961 18.8086C16.7383 18.8086 17.3633 19.0723 17.8711 19.5996C18.3789 20.127 18.6328 20.752 18.6328 21.4746C18.6328 22.1973 18.3789 22.8125 17.8711 23.3203C17.3633 23.8281 16.7578 24.082 16.0547 24.082H15.8789V25.1367C15.8789 25.332 15.8105 25.5078 15.6738 25.6641C15.5371 25.8203 15.3613 25.8984 15.1465 25.8984C14.9316 25.8984 14.7559 25.8203 14.6191 25.6641C14.4824 25.5078 14.4141 25.332 14.4141 25.1367V24.082H12.9492C12.7148 24.082 12.5293 24.0039 12.3926 23.8477C12.2559 23.6914 12.1875 23.5156 12.1875 23.3203C12.1875 23.125 12.2559 22.9492 12.3926 22.793C12.5293 22.6367 12.7148 22.5586 12.9492 22.5586H15.9961C16.3086 22.5586 16.582 22.4512 16.8164 22.2363C17.0508 22.0215 17.168 21.7578 17.168 21.4453C17.168 21.1328 17.0508 20.8691 16.8164 20.6543C16.582 20.4395 16.3086 20.332 15.9961 20.332H14.2969C13.5547 20.332 12.9297 20.0781 12.4219 19.5703C11.9141 19.0625 11.6602 18.4473 11.6602 17.7246C11.6602 17.002 11.9141 16.377 12.4219 15.8496C12.9297 15.3223 13.5547 15.0586 14.2969 15.0586H14.4141V14.0625C14.4141 13.8281 14.4824 13.6426 14.6191 13.5059C14.7559 13.3691 14.9316 13.3008 15.1465 13.3008C15.3613 13.3008 15.5371 13.3691 15.6738 13.5059C15.8105 13.6426 15.8789 13.8281 15.8789 14.0625V15.0586H17.2852C17.5195 15.0586 17.7051 15.1367 17.8418 15.293C17.9785 15.4492 18.0469 15.625 18.0469 15.8203C18.0469 16.0156 17.9785 16.1914 17.8418 16.3477C17.7051 16.5039 17.5195 16.582 17.2852 16.582H14.2969C13.9844 16.582 13.7207 16.6895 13.5059 16.9043C13.291 17.1191 13.1836 17.3828 13.1836 17.6953C13.1836 18.0078 13.291 18.2715 13.5059 18.4863C13.7207 18.7012 13.9844 18.8086 14.2969 18.8086H15.9961ZM26.4258 17.1094C27.4023 19.4141 27.8906 21.7773 27.8906 24.1992C27.8906 25.8008 27.3242 27.168 26.1914 28.3008C25.0586 29.4336 23.6914 30 22.0898 30H7.91016C6.30859 30 4.94141 29.4336 3.80859 28.3008C2.67578 27.168 2.10938 25.8008 2.10938 24.1992C2.10938 21.7773 2.59766 19.4141 3.57422 17.1094C4.39453 15.3125 5.48828 13.5938 6.85547 11.9531C8.10547 10.4297 9.47266 9.12109 10.957 8.02734L7.5 2.87109C7.26562 2.51953 7.30469 2.20703 7.61719 1.93359C8.75 0.761719 10 0.175781 11.3672 0.175781C12.2266 0.175781 13.457 0.46875 15.0586 1.05469C15.1758 1.09375 15.293 1.11328 15.4102 1.11328C15.7227 1.11328 16.2305 0.957031 16.9336 0.644531C17.9492 0.214844 18.7695 0 19.3945 0C20.332 0 21.2109 0.390625 22.0312 1.17188C22.3047 1.44531 22.3633 1.75781 22.207 2.10938L18.9844 7.96875C20.4688 9.0625 21.8555 10.3906 23.1445 11.9531C24.5117 13.5547 25.6055 15.2734 26.4258 17.1094ZM9.08203 2.51953L12.3633 7.44141H17.5781L20.5664 1.875C20.1758 1.60156 19.7852 1.46484 19.3945 1.46484C19.0039 1.46484 18.3789 1.64062 17.5195 1.99219C16.6211 2.38281 15.918 2.57812 15.4102 2.57812C15.1367 2.57812 14.8633 2.51953 14.5898 2.40234C13.1445 1.89453 12.0703 1.64062 11.3672 1.64062C10.5469 1.64062 9.78516 1.93359 9.08203 2.51953ZM22.0898 28.4766C23.2617 28.4766 24.2676 28.0566 25.1074 27.2168C25.9473 26.377 26.3672 25.3711 26.3672 24.1992C26.3672 20.1758 24.9219 16.4258 22.0312 12.9492C20.7031 11.3086 19.2969 9.98047 17.8125 8.96484H12.1875C10.6641 10.0586 9.25781 11.3867 7.96875 12.9492C5.07812 16.4258 3.63281 20.1758 3.63281 24.1992C3.63281 25.3711 4.05273 26.377 4.89258 27.2168C5.73242 28.0566 6.73828 28.4766 7.91016 28.4766H22.0898Z" fill="white"/>
</svg>
