<svg width="50" height="51" viewBox="0 0 50 51" fill="none" xmlns="http://www.w3.org/2000/svg">
<path d="M18.3594 18.8594H27.5391V16.3203H13.2813L10.9375 22.4727C10.612 22.7982 10.2865 22.9609 9.96095 22.9609C9.57033 22.9609 9.34246 22.7982 9.27736 22.4727L6.93361 16.3203H5.85939C4.68752 16.3203 3.69468 16.7272 2.88087 17.541C2.06707 18.3548 1.66017 19.3477 1.66017 20.5195V32.1406H1.52588e-05V20.5195C1.52588e-05 18.8919 0.569677 17.5085 1.709 16.3691C2.84832 15.2298 4.23179 14.6602 5.85939 14.6602H28.3203C28.9063 14.6602 29.1992 14.9531 29.1992 15.5391V19.6406C29.1992 20.2266 28.9063 20.5195 28.3203 20.5195H18.3594V18.8594ZM10.0586 19.8359L11.4258 16.3203H8.78908L10.0586 19.8359ZM14.1602 48.8398V21.3008H15.8203V49.6211C15.8203 50.207 15.5599 50.5 15.0391 50.5H9.96095H4.98048C4.45965 50.5 4.19923 50.207 4.19923 49.6211V21.3008H5.85939V48.8398H9.1797V33.0195H10.8399V48.8398H14.1602ZM9.1797 26.3789V24.6211H10.8399V26.3789H9.1797ZM9.1797 29.6992V28.0391H10.8399V29.6992H9.1797ZM9.1797 13.8789C8.00783 13.8789 7.01499 13.472 6.20119 12.6582C5.38738 11.8444 4.98048 10.8516 4.98048 9.67969V7.14062C4.98048 5.96875 5.38738 4.99219 6.20119 4.21094C7.01499 3.42969 8.00783 3.03906 9.1797 3.03906H10.8399C12.0117 3.03906 13.0046 3.42969 13.8184 4.21094C14.6322 4.99219 15.0391 5.96875 15.0391 7.14062V9.67969C15.0391 10.2656 14.9251 10.8027 14.6973 11.291C14.4694 11.7793 14.1764 12.2188 13.8184 12.6094C13.4603 13 13.0208 13.3092 12.5 13.5371C11.9792 13.765 11.4258 13.8789 10.8399 13.8789H9.1797ZM6.64064 7.14062V9.67969C6.64064 10.3958 6.88478 10.9818 7.37306 11.4375C7.86134 11.8932 8.46356 12.1211 9.1797 12.1211H10.8399C11.556 12.1211 12.1582 11.8932 12.6465 11.4375C13.1348 10.9818 13.3789 10.3958 13.3789 9.67969V7.14062C13.3789 6.42448 13.1348 5.83854 12.6465 5.38281C12.1582 4.92708 11.556 4.69922 10.8399 4.69922H9.1797C8.72397 4.69922 8.3008 4.79688 7.91017 4.99219C7.51955 5.1875 7.2103 5.48047 6.98244 5.87109C6.75457 6.26172 6.64064 6.68489 6.64064 7.14062ZM49.1211 0.5C49.707 0.5 50 0.792969 50 1.37891V35.4609V39.6602C50 40.2461 49.707 40.5391 49.1211 40.5391H20.0195C19.4336 40.5391 19.1406 40.2461 19.1406 39.6602V36.3398V35.4609V34.6797H20.0195H48.3399V2.16016H17.4805V0.5H49.1211ZM48.3399 38.8789V36.3398H20.8008V38.8789H48.3399ZM32.5195 16.3203V14.6602H40.0391V16.3203H32.5195ZM32.5195 19.6406V17.9805H44.1406V19.6406H32.5195ZM32.5195 22.9609V21.3008H44.1406V22.9609H32.5195ZM32.5195 26.3789V24.6211H44.1406V26.3789H32.5195ZM32.5195 29.6992V28.0391H34.1797V29.6992H32.5195ZM35.8399 29.6992V28.0391H37.5V29.6992H35.8399ZM39.1602 29.6992V28.0391H40.8203V29.6992H39.1602ZM42.4805 29.6992V28.0391H44.1406V29.6992H42.4805ZM19.1406 29.6992V28.0391H20.8008V29.6992H19.1406ZM22.461 29.6992V28.0391H24.1211V29.6992H22.461ZM25.8789 29.6992V28.0391H27.5391V29.6992H25.8789ZM29.1992 29.6992V28.0391H30.8594V29.6992H29.1992ZM19.1406 26.3789V24.6211H20.8008V26.3789H19.1406ZM22.461 26.3789V24.6211H24.1211V26.3789H22.461ZM25.8789 26.3789V24.6211H27.5391V26.3789H25.8789ZM29.1992 26.3789V24.6211H30.8594V26.3789H29.1992ZM19.1406 22.9609V21.3008H20.8008V22.9609H19.1406ZM22.461 22.9609V21.3008H24.1211V22.9609H22.461ZM25.8789 22.9609V21.3008H27.5391V22.9609H25.8789ZM29.1992 22.9609V21.3008H30.8594V22.9609H29.1992ZM19.1406 33.0195V31.3594H20.8008V33.0195H19.1406ZM22.461 33.0195V31.3594H24.1211V33.0195H22.461ZM25.8789 33.0195V31.3594H27.5391V33.0195H25.8789ZM29.1992 33.0195V31.3594H30.8594V33.0195H29.1992ZM32.5195 33.0195V31.3594H34.1797V33.0195H32.5195ZM35.8399 33.0195V31.3594H37.5V33.0195H35.8399ZM39.1602 33.0195V31.3594H40.8203V33.0195H39.1602ZM42.4805 33.0195V31.3594H44.1406V33.0195H42.4805ZM17.4805 7.14062V5.48047H25V7.14062H17.4805ZM17.4805 11.3398V9.67969H31.6406V11.3398H17.4805ZM26.6602 7.14062V5.48047H29.9805V7.14062H26.6602ZM43.1641 5.67578C43.1641 5.67578 43.3268 5.83854 43.6524 6.16406C43.9779 6.48958 44.1406 7.10807 44.1406 8.01953C44.1406 8.93099 43.8151 9.71224 43.1641 10.3633C42.513 11.0143 41.7318 11.3398 40.8203 11.3398C39.9089 11.3398 39.1276 11.0143 38.4766 10.3633C37.8255 9.71224 37.5 8.93099 37.5 8.01953C37.5 7.10807 37.8255 6.32682 38.4766 5.67578C39.1276 5.02474 39.9089 4.69922 40.8203 4.69922C41.7318 4.69922 42.513 5.02474 43.1641 5.67578ZM39.6485 6.84766C39.6485 6.84766 39.5671 6.92904 39.4043 7.0918C39.2416 7.25456 39.1602 7.5638 39.1602 8.01953C39.1602 8.47526 39.3229 8.86589 39.6485 9.19141C39.974 9.51693 40.3646 9.67969 40.8203 9.67969C41.2761 9.67969 41.6667 9.51693 41.9922 9.19141C42.3177 8.86589 42.4805 8.47526 42.4805 8.01953C42.4805 7.5638 42.3177 7.17318 41.9922 6.84766C41.6667 6.52214 41.2761 6.35938 40.8203 6.35938C40.3646 6.35938 39.974 6.52214 39.6485 6.84766Z" fill="#F6B129"/>
</svg>
