<svg width="30" height="31" viewBox="0 0 30 31" fill="none" xmlns="http://www.w3.org/2000/svg">
<path fill-rule="evenodd" clip-rule="evenodd" d="M15 2.0625C13.4253 2.0625 11.9151 2.68806 10.8016 3.80155C9.68807 4.91505 9.06251 6.42528 9.06251 8C9.06251 9.57472 9.68807 11.0849 10.8016 12.1984C11.9151 13.3119 13.4253 13.9375 15 13.9375C16.5747 13.9375 18.085 13.3119 19.1985 12.1984C20.312 11.0849 20.9375 9.57472 20.9375 8C20.9375 6.42528 20.312 4.91505 19.1985 3.80155C18.085 2.68806 16.5747 2.0625 15 2.0625ZM10.9375 8C10.9375 6.92256 11.3655 5.88925 12.1274 5.12738C12.8893 4.36551 13.9226 3.9375 15 3.9375C16.0775 3.9375 17.1108 4.36551 17.8726 5.12738C18.6345 5.88925 19.0625 6.92256 19.0625 8C19.0625 9.07744 18.6345 10.1108 17.8726 10.8726C17.1108 11.6345 16.0775 12.0625 15 12.0625C13.9226 12.0625 12.8893 11.6345 12.1274 10.8726C11.3655 10.1108 10.9375 9.07744 10.9375 8ZM10 15.8125C8.73731 15.8127 7.51861 16.2764 6.57509 17.1155C5.63156 17.9547 5.02884 19.111 4.88126 20.365L4.06876 27.265C4.03959 27.512 4.10972 27.7604 4.26374 27.9557C4.41775 28.151 4.64303 28.2771 4.89001 28.3063C5.137 28.3354 5.38545 28.2653 5.58073 28.1113C5.776 27.9573 5.90209 27.732 5.93126 27.485L6.74376 20.585C6.81767 19.9483 7.07675 19.3474 7.48892 18.8565C7.90109 18.3657 8.44822 18.0066 9.06251 17.8238V23.065C9.06251 24.1887 9.06251 25.125 9.16251 25.8675C9.26751 26.6525 9.50001 27.3612 10.07 27.93C10.6388 28.5 11.3475 28.7325 12.1325 28.8375C12.875 28.9375 13.8125 28.9375 14.935 28.9375H15.065C16.1888 28.9375 17.125 28.9375 17.8688 28.8375C18.6525 28.7325 19.3613 28.5 19.9313 27.93C20.5013 27.36 20.7313 26.6525 20.8375 25.8675C20.9375 25.125 20.9375 24.1887 20.9375 23.065V17.8238C21.5519 18.0063 22.0991 18.3651 22.5115 18.8557C22.9239 19.3463 23.1833 19.9472 23.2575 20.5837L24.07 27.4837C24.0807 27.6089 24.1165 27.7306 24.1751 27.8417C24.2338 27.9528 24.3142 28.0509 24.4115 28.1303C24.5089 28.2097 24.6212 28.2687 24.7418 28.3039C24.8624 28.339 24.9888 28.3496 25.1135 28.3349C25.2383 28.3203 25.3588 28.2807 25.468 28.2185C25.5771 28.1564 25.6727 28.0729 25.749 27.9731C25.8252 27.8733 25.8807 27.7592 25.912 27.6376C25.9433 27.5159 25.9499 27.3892 25.9313 27.265L25.1188 20.365C24.9712 19.111 24.3685 17.9547 23.4249 17.1155C22.4814 16.2764 21.2627 15.8127 20 15.8125H10ZM10.9375 23V17.6875H19.0625V23C19.0625 24.205 19.06 25.015 18.98 25.6187C18.9025 26.195 18.7675 26.4425 18.605 26.605C18.4425 26.7675 18.195 26.9013 17.6175 26.98C17.015 27.06 16.205 27.0625 15 27.0625C13.795 27.0625 12.9863 27.06 12.3813 26.9788C11.805 26.9013 11.5575 26.7675 11.395 26.6037C11.2325 26.44 11.0988 26.195 11.02 25.6187C10.94 25.015 10.9375 24.205 10.9375 23Z" fill="white"/>
</svg>
